<svg id="OBJECTS" xmlns="http://www.w3.org/2000/svg" xmlns:xlink="http://www.w3.org/1999/xlink" viewBox="0 0 423.43 419.79"><defs><style>.cls-1{fill:none;}.cls-2{fill:url(#Degradado_sin_nombre_5);}.cls-3{fill:url(#Degradado_sin_nombre_4);}.cls-4{fill:url(#Degradado_sin_nombre_4-2);}.cls-5{fill:url(#Degradado_sin_nombre_4-3);}.cls-6{fill:url(#Degradado_sin_nombre_4-4);}.cls-7{fill:url(#Degradado_sin_nombre_4-5);}.cls-8{fill:url(#Degradado_sin_nombre_4-6);}.cls-9{fill:url(#Degradado_sin_nombre_4-7);}.cls-10{fill:url(#Degradado_sin_nombre_4-8);}.cls-11{fill:url(#Degradado_sin_nombre_4-9);}.cls-12{fill:url(#Degradado_sin_nombre_4-10);}.cls-13{fill:url(#Degradado_sin_nombre_4-11);}.cls-14{fill:url(#Degradado_sin_nombre_4-12);}.cls-15{fill:url(#Degradado_sin_nombre_4-13);}.cls-16{fill:url(#Degradado_sin_nombre_4-14);}.cls-17{clip-path:url(#clip-path);}.cls-18{fill:url(#Degradado_sin_nombre_10);}.cls-19{fill:url(#Degradado_sin_nombre_9);}.cls-20{fill:url(#Degradado_sin_nombre_9-2);}.cls-21{fill:url(#Degradado_sin_nombre_9-3);}.cls-22{fill:url(#Degradado_sin_nombre_9-4);}.cls-23{fill:url(#Degradado_sin_nombre_9-5);}.cls-24{fill:url(#Degradado_sin_nombre_9-6);}.cls-25{fill:url(#Degradado_sin_nombre_9-7);}.cls-26{fill:url(#Degradado_sin_nombre_9-8);}.cls-27{fill:url(#Degradado_sin_nombre_9-9);}.cls-28{fill:url(#Degradado_sin_nombre_9-10);}.cls-29{fill:url(#Degradado_sin_nombre_9-11);}.cls-30{fill:url(#Degradado_sin_nombre_9-12);}.cls-31{fill:#1c9ac7;}.cls-32{fill:#2a3648;}.cls-33{fill:#fff;}</style><linearGradient id="Degradado_sin_nombre_5" x1="211.44" y1="11.65" x2="211.44" y2="151.06" gradientUnits="userSpaceOnUse"><stop offset="0" stop-color="#e0feff"/><stop offset="0.25" stop-color="#dbfeff"/><stop offset="0.56" stop-color="#cdfdff"/><stop offset="0.88" stop-color="#b5fcff"/><stop offset="0.95" stop-color="#affcff"/></linearGradient><linearGradient id="Degradado_sin_nombre_4" x1="31.93" y1="100.26" x2="81.82" y2="100.26" gradientUnits="userSpaceOnUse"><stop offset="0" stop-color="#72e5ff"/><stop offset="0.82" stop-color="#72e5ff" stop-opacity="0"/></linearGradient><linearGradient id="Degradado_sin_nombre_4-2" x1="87.24" y1="70.12" x2="148.47" y2="70.12" xlink:href="#Degradado_sin_nombre_4"/><linearGradient id="Degradado_sin_nombre_4-3" x1="140.13" y1="37.09" x2="193.78" y2="124.62" xlink:href="#Degradado_sin_nombre_4"/><linearGradient id="Degradado_sin_nombre_4-4" x1="275.71" y1="75.91" x2="300.59" y2="75.91" xlink:href="#Degradado_sin_nombre_4"/><linearGradient id="Degradado_sin_nombre_4-5" x1="219.48" y1="21.51" x2="258.77" y2="52.57" xlink:href="#Degradado_sin_nombre_4"/><linearGradient id="Degradado_sin_nombre_4-6" x1="185.43" y1="2.91" x2="185.43" y2="2.91" xlink:href="#Degradado_sin_nombre_4"/><linearGradient id="Degradado_sin_nombre_4-7" x1="180.62" y1="-3.57" x2="216.39" y2="52.9" xlink:href="#Degradado_sin_nombre_4"/><linearGradient id="Degradado_sin_nombre_4-8" x1="336.62" y1="99.95" x2="390.94" y2="99.95" xlink:href="#Degradado_sin_nombre_4"/><linearGradient id="Degradado_sin_nombre_4-9" x1="199.65" y1="88.83" x2="263.38" y2="88.83" xlink:href="#Degradado_sin_nombre_4"/><linearGradient id="Degradado_sin_nombre_4-10" x1="172.09" y1="9.3" x2="178.47" y2="9.3" xlink:href="#Degradado_sin_nombre_4"/><linearGradient id="Degradado_sin_nombre_4-11" x1="309.3" y1="100.11" x2="328.53" y2="100.11" xlink:href="#Degradado_sin_nombre_4"/><linearGradient id="Degradado_sin_nombre_4-12" x1="241.28" y1="109.35" x2="266.91" y2="109.35" xlink:href="#Degradado_sin_nombre_4"/><linearGradient id="Degradado_sin_nombre_4-13" x1="240.54" y1="119.63" x2="240.86" y2="119.63" xlink:href="#Degradado_sin_nombre_4"/><linearGradient id="Degradado_sin_nombre_4-14" x1="191.59" y1="69.35" x2="227.07" y2="69.35" xlink:href="#Degradado_sin_nombre_4"/><clipPath id="clip-path"><path class="cls-1" d="M424.56,115.71c-26.27,4.58-66.86,1.79-78.8-1.2s-33.83-3.37-65.27,1.7-90.73-.7-103.47,0-80.39-.3-115.81-1.49-97.77,3.18-97.77,3.18V435.22h500V112.32S450.82,111.14,424.56,115.71Z"/></clipPath><linearGradient id="Degradado_sin_nombre_10" x1="209.88" y1="440.29" x2="209.88" y2="178.14" gradientUnits="userSpaceOnUse"><stop offset="0" stop-color="#dffaff"/><stop offset="0.17" stop-color="#daf9ff"/><stop offset="0.37" stop-color="#ccf7ff"/><stop offset="0.59" stop-color="#b4f4ff"/><stop offset="0.82" stop-color="#93efff"/><stop offset="0.95" stop-color="#7decff"/></linearGradient><linearGradient id="Degradado_sin_nombre_9" x1="214.02" y1="96.65" x2="214.02" y2="479.59" gradientUnits="userSpaceOnUse"><stop offset="0" stop-color="#46d6ff"/><stop offset="0.82" stop-color="#46d6ff" stop-opacity="0"/></linearGradient><linearGradient id="Degradado_sin_nombre_9-2" x1="322.18" y1="89.89" x2="322.18" y2="358.07" xlink:href="#Degradado_sin_nombre_9"/><linearGradient id="Degradado_sin_nombre_9-3" x1="288.76" y1="391.61" x2="145.58" y2="281.97" xlink:href="#Degradado_sin_nombre_9"/><linearGradient id="Degradado_sin_nombre_9-4" x1="81.43" y1="89.89" x2="81.43" y2="358.08" xlink:href="#Degradado_sin_nombre_9"/><linearGradient id="Degradado_sin_nombre_9-5" x1="151.39" y1="96.65" x2="151.39" y2="479.59" xlink:href="#Degradado_sin_nombre_9"/><linearGradient id="Degradado_sin_nombre_9-6" x1="291.96" y1="370.5" x2="217.5" y2="276.81" xlink:href="#Degradado_sin_nombre_9"/><linearGradient id="Degradado_sin_nombre_9-7" x1="235.44" y1="96.65" x2="235.44" y2="479.59" xlink:href="#Degradado_sin_nombre_9"/><linearGradient id="Degradado_sin_nombre_9-8" x1="242.86" y1="96.64" x2="242.86" y2="479.59" xlink:href="#Degradado_sin_nombre_9"/><linearGradient id="Degradado_sin_nombre_9-9" x1="169.91" y1="259.47" x2="129.81" y2="364.2" xlink:href="#Degradado_sin_nombre_9"/><linearGradient id="Degradado_sin_nombre_9-10" x1="297.94" y1="223.18" x2="297.94" y2="353.17" xlink:href="#Degradado_sin_nombre_9"/><linearGradient id="Degradado_sin_nombre_9-11" x1="302.6" y1="223.18" x2="302.6" y2="353.17" xlink:href="#Degradado_sin_nombre_9"/><linearGradient id="Degradado_sin_nombre_9-12" x1="211.31" y1="377.58" x2="122.95" y2="419.72" xlink:href="#Degradado_sin_nombre_9"/></defs><path class="cls-2" d="M52.53,103.65c11.29-2.35,21.29-6.59,24.29-10.12s4.59-7.06,5.65-7.94,3.71,2.83,4.77,3.36c0,0,3.17-5.65,4.58-6.53s15.71-5.3,19.42-10.06,14.64-22.77,18-25.59,9.53-3.53,10.76-6.18,5.65-1.76,8.47-2.12c0,0,3.71-7.23,5.65-12.17s9.7-9,11.47-10.77,2.47-7.23,4.06-8.29,7.94-1.41,8.82-2.29S180.94.18,182.18,0s5.12,5.83,6.53,5.83,2.47-3.88,4.23-4.24S202.65,7.24,206,9.36,216.06,23.65,217.82,24s6.36.71,8.83,1.59,6,6.71,7.76,7.77,12.89,3.53,15.53,4.23,5.83,9.18,7.94,9.88,16.24,11.65,17.83,12,10.06.18,13.23,1.24,18.71,19.06,20.65,19.94,24.06,9.28,31.59,8.3c4-.53,6.7-4.59,8.12-4.42s18.17,21.36,20.29,23.47,12,2,13.06,2.47,8.12,4.24,8.29,4.77-21.17-.71-25.06,0-19.23,3.35-21.88,3.35-16.41-3-21-3.17-23.29.17-27,.7-7.06,2.12-10.23,2.47-19.06-3.17-23.3-2.47-17.47,3.71-25.94,3.71-1.76-3.88-38.82-3.71-48.18,1.41-54,1.06-18.18-1.06-20.65-.53-5.82,3.71-7.76,3.18-4.59-3.36-8.48-3.36S89,120.12,83.88,119.89s-29.47-.42-31.76-.94,3.53-4.24,3.53-4.77-20.47-.71-23.3-.71S41.24,106,52.53,103.65Z"/><path class="cls-3" d="M79.65,93c.7-2.29,2.17-6.66,2.17-6.66a74.65,74.65,0,0,1-5,7.19c-3,3.53-13,7.77-24.29,10.12s-23,9.82-20.18,9.82,23.3.18,23.3.71c4.59-3,21.88-11.12,24-12.53S78.94,95.3,79.65,93Z"/><path class="cls-4" d="M127.82,60c2.3-2.24,11,8,12.71,7.29s0-12.53,0-14.12,4.59-1.59,5.65-3,1.06-6.88,2.29-11.65c-2.82.36-7.23-.52-8.47,2.12s-7.41,3.36-10.76,6.18-14.3,20.82-18,25.59-18,9.17-19.42,10.06S87.24,89,87.24,89s6.53,6.7,8.64,8.82,8.3,2.82,9.53,3.88-.17-5.12-.7-8.65,5.11-9.35,8.29-11.11,7.94-3.18,9.88-4.24S125.53,62.19,127.82,60Z"/><path class="cls-5" d="M165.59,15.53c-1.77,1.77-9.53,5.83-11.47,10.77-.18.45-.37.92-.57,1.39a80.34,80.34,0,0,1,1.8,8.84c0,2.12,13.42,15.71,10.77,17.83s-8.3,14.11-9,16.41,4.76,15,3.53,15.51-11.12,4.43-13.06,4.25-6.53-5.29-8.12-4.06-4.76,5.48-5.29,7.42-2.47,9.66-.88,9.66,24.52,9.92,23.29,10.81-7.93,2.85-7.93,2.85c5.31-.13,13.89-.59,29.65-.87h0c-4.77.07-8-8.34-8.83-10.45s8.12-19.06,7.77-19.77-3.18-9-2.3-10.23,17.47-9.18,15.36-9.71-20.83,6.88-20.65,5.65,7.59-7.94,7.76-9.71-.88-15.35-1.59-17.29-11.11-15-11.11-16.59,4.41-6.88,3.35-9.71,1.59-11.29,1.59-11.29C168.06,8.3,167.35,13.77,165.59,15.53Z"/><path class="cls-6" d="M297.06,78.36c-.18-2.12,2-8.32,3.53-6.7-4.77-5-10-10.39-11.65-10.95-3.17-1.06-11.64-.88-13.23-1.24,0,0,10.41,9.36,13.76,13.42s4.24,17.11,6,19.23S297.24,80.47,297.06,78.36Z"/><path class="cls-7" d="M213.71,19.09c3.9,5.53,8.17,13,8.88,13s3.18-3,4.23-2.12,3.18,7.24,5,8.47,9.35,4.06,11.47,4.59,13.5,3.48,13.5,3.48h0c-2-2.38-4.6-8.36-6.81-8.95-2.64-.7-13.76-3.17-15.53-4.23s-5.29-6.89-7.76-7.77-7.06-1.23-8.83-1.59c-.72-.14-2.29-2.29-4.11-4.92Z"/><polygon class="cls-8" points="185.43 2.91 185.43 2.91 185.43 2.91 185.43 2.91"/><path class="cls-9" d="M188.18,37.42c1.06,2.47,12.88,17.82,13.06,15.35s1.41-12.71-.18-15-2.65-23.3,0-19.94,4.06,7.23,4.94,5.64-1.06-10.58,0-10.94,4.72,2.25,4.72,2.25c-1.75-2.45-3.47-4.63-4.72-5.42-3.35-2.12-11.29-8.12-13.06-7.77s-2.82,4.24-4.23,4.24a1.26,1.26,0,0,1-.67-.29c1.23,1.35,2.44,2.86,2.44,3.64,0,1.59-3.18,9.53-2.3,12.18S187.12,35,188.18,37.42Z"/><path class="cls-10" d="M382.65,110.47c-1.06-.52-10.94-.35-13.06-2.47S350.71,84.71,349.3,84.53s-4.14,3.89-8.12,4.42a18.33,18.33,0,0,1-4.56-.18h0s9.68,1.76,11.09,2.47,4.23,10.94,5.47,11.65-3.53,5.29-4.94,6.35,21.7,3.53,17.64,6c3.89-.71,25.24.53,25.06,0S383.71,111,382.65,110.47Z"/><path class="cls-11" d="M238.12,110.47c.35-1.58,3-13.23,4.41-16.58s21.71-12.36,20.82-14.47-9.88-7.59-11.29-9.18S248.35,58.24,248,60s1.32,14.44.27,14.79-10.42,3.26-9.71,4.5,8.29,2.5,5.09,3.46c-4.73,1.42-10.62,3.18-12.14,4.13C229,88.42,225.41,104,224,106.06s-24.35,10.06-24.35,10.06h0c17.12,0,24.32.87,28.19,1.79h0C226.56,116.52,237.77,112.06,238.12,110.47Z"/><path class="cls-12" d="M174.88,13.44c.68-1.71,3.59-8.49,3.59-8.49-.62.61-3.92,1-6.38,1.5C173.56,6.08,174.19,15.16,174.88,13.44Z"/><path class="cls-13" d="M328.41,109.3c1.06-2.24-5.17-7.88-7.17-10s-3.42-10.12-3.42-10.12c-.61-1.71-.82-3.53-2-2.59s-7.17,5.41-6.47,7.3,7.18,5.53,7.18,6.44-2.47,4.26-.94,5.32,4.71,8.12,6.23,8.24S327.35,111.53,328.41,109.3Z"/><path class="cls-14" d="M259.35,112c-.47-.94-.82-11.53-1.76-12.82s-9.38,20-16.31,20.4c8-.72,17.69-2.87,21.19-3.46a19.42,19.42,0,0,1,4.44.09h0S259.82,113,259.35,112Z"/><path class="cls-15" d="M240.54,119.64l.32,0Z"/><path class="cls-16" d="M226.18,71.42c4-1.65-6.59-1.89-10.12-6.12s-5.65-1.06-8.47-1.47-6.79-5.36-9.51-5.83,1.74,9.89,1.74,11.3-8.23,8.94-8.23,11.06,8.94-5.89,12.94-6.83S222.18,73.06,226.18,71.42Z"/><g class="cls-17"><path class="cls-18" d="M46,110.45c1.41,5.24,4.15,16.44,2.91,20.15-1.63,4.91-3,40.5-1.68,45s3.73,18,5,19.64,8.59-1.13,10.43,0,8.59,21.38,10.12,25.36S84.12,231.65,85,234.41s1.22,21.17,2.14,24.85,6.14,1.54,8,0,3.38,26.7,4.6,30.07,2.46-.92,4.61-2.76,6.13,38.66,9.51,41.73,10.12.92,15.65,0a11.69,11.69,0,0,1,12.27,6.44c1.84,4,9.2,16.27,12.58,18.11S164.5,362.05,166,363s.92,22.4,4.6,24.86,16,15.34,17.18,18.1,7.67,13.5,10.44,13.81,4.6-6.75,7.67-6.45,7,5.54,9.2,6.46,7.06-11.37,10.13-12.59,11.66-7.06,12.88-11.05,8.29-5.52,10.74-7.36,12.28-24.86,15.65-27,10.43-2.45,12.89-3.06,7.67-26.7,9.82-30.38,8.59-10.43,9.81-12.89,1.23-32.52,3.07-36.2,14.73-16.57,19-21.48-6.14-34.36-5.53-35.59,1.84-16.57,3.68-19,12.28,14.43,13.81,14.73,7.06-28.84,9.21-31.29,12.88-11.36,13.8-14.43,6.45-36.2,8-40.5,11.1-17.34,11.64-21.17Z"/><path class="cls-19" d="M233.85,144.82c0,3.68-6.45,35.28-8.9,38.66s-4.91-2.15-6.14,0-8.59,15-11.66,17.49-18.71,8.59-18.71,8.59c-3.07,4-18.72,20.56-18.72,23.93s1.53,22.4,5.83,26.39,13.81,18.71,16.26,15,8.29-21.78,7.37-23.93-10.13-5.83-10.74-8.9,4.6-17.18,7.05-17.79,8.6,0,8.9-2.77,3.07-16,5.49-16.26,15.07,6.75,16,4.3-.92-12.58.92-11.05,5.83,10.13,5.83,7.67,1.84-32.21,1.84-35.28,3.38-22.4,4-20.25,3.68,6.44,4.3,1.22-1.23-29.14-.31-32.83,15.88-8.59,15.88-8.59h-30C228,110.45,233.85,141.14,233.85,144.82Z"/><path class="cls-20" d="M373.74,110.45h-81.9s.92,8.59,0,12.28,5.52,16.87,5.21,19.63-12.58,17.8-12.58,21.79-3.68,28.23-3.68,31.6-5.06,1.34-9.51-1.53c-2.54-1.65,3.07,48.78,2.15,54.61s1.84,38.36,1.23,45.11,6.13-12.28,6.75-15,3.27-42.24,3-49.91-.26-18.05,1-19.43c2.5-2.69,8.11,1,11,3.06s-.46-18.49,1.88-18c3.89.81,14.39,23.05,15.34,27.51.62-1.23,1.84-16.57,3.68-19s12.28,14.43,13.81,14.73c-2.84-7.16-2.89-20.38-1.87-33,.56-7.08-12.05-44.83-11.12-50.35,1.18-7,9.21,12.47,23,18.41,1.33.57,8.41,27.48,13,19.22.92-3.06,6.45-36.2,8-40.5S373.2,114.28,373.74,110.45Z"/><path class="cls-21" d="M237.94,390c-.82-1.43-2.05-13.7-4.5-11.45s-5.73,12.07-7.88,8.08-1.22-67.81,0-72.11S235.69,291.17,236,285s.3-35.59-3.07-33.45-15.34,20.87-16,23.91,4,20,5.52,21.81-5.21,16-6.44,19.33-16,16.57-19.33,16.26-14.11-4-16.57-4-21.48,11-26.69,12-11.66-6.14-11.66-6.14c1.84,4,9.2,16.27,12.58,18.11S164.5,362.05,166,363s.92,22.4,4.6,24.86,16,15.34,17.18,18.1,7.67,13.5,10.44,13.81,4.6-6.75,7.67-6.45,7,5.54,9.2,6.46,7.06-11.37,10.13-12.59,11.66-7.06,12.88-11.05c.54-1.75,2.21-3,4.12-4.07h0C240.14,393.08,238.76,391.41,237.94,390Z"/><path class="cls-22" d="M102,203.83c-1.76,2.86-12.39-9.45-14.44-11.37s-11.25,6.46-13.09,6.26,10.64-43.57,9.41-47.05-16.77,2.05-21.68,1.23-6.34-28.84-8-30.69,9.82-5.52,14.73-7.56,7.57,17.18,9.2,18.61c1.06.92,3.95-11.71,8.69-15.14,2.6-1.88,8.12,4.87,8.7,4.5,1.64-1-1-6.13,0-7.16s13-4.09,21.27-5H46c1.41,5.24,4.15,16.44,2.91,20.15-1.63,4.91-3,40.5-1.68,45s3.73,18,5,19.64,8.59-1.13,10.43,0,8.59,21.38,10.12,25.36S84.12,231.65,85,234.41s1.22,21.17,2.14,24.85,6.14,1.54,8,0,3.38,26.7,4.6,30.07,2.46-.92,4.61-2.76c.48-.41,1,1.32,1.69,4.27,0,0-2.92-20.53-3.94-26.67s7.56-21.88,9.41-26.38-2.46-41.73-3.07-44.8S103.79,201,102,203.83Z"/><path class="cls-23" d="M155.5,115.67c-2,3.07-6,1.83-8.18,3.68-1.43,1.23,4.51,6.84,3.68,8.59-.67,1.41-7.36,12.27-10.12,14.12s-6-5.62-11.66-7.06c-1.4-.36-6.65,2.35-9.92,2.35a89.77,89.77,0,0,0-9.41.41c-2,.41,9.2,2.05,11,3.07s3.89,6.34,5.53,8.79-8-.4-10,0,6.75,10.85,6.35,14.32,2.23,25.78,2.44,28-3.06,18.2-2.85,24.95,7.52,43.57,7.95,47.05,2.89-9.43,3.71-12.49,3.88,2.47,6.34,3.08,4.5-55.64,3.47-60.14,10.85,1.61,12.48,1.83,1-28.42,1.43-32.1,4.71-16.37,6.14-19.43-6.75-2.66-8.59-5.12,9.82-23.11,10.84-24.55,27-4.6,27-4.6h-37.5C156,112.87,156.06,114.84,155.5,115.67Z"/><path class="cls-24" d="M249.6,387.92c3.26-4.54,11.82-24.2,14.93-26.18,3.38-2.14,10.43-2.45,12.89-3.06a7,7,0,0,1-6.55-4.71c-1.84-4.91-4.09-23.73-3.27-27.82s5.73-.82,7.77,0-6.89-10.43-7.94-13.5-.24-24.95-1.26-29-3.69-.21-5.32,0,3.48-20.05,3.48-23.53-4.65,9.15-6,15.42.54,29.17,0,37.56-.74,28.23-4,33.55S242,371,241,374.84c-.88,3.34,3.48,14.43,6.52,14.71a10,10,0,0,0,1.35-.8A4.05,4.05,0,0,1,249.6,387.92Z"/><path class="cls-25" d="M240.89,350.49c-1.34-.61-4.13,10-5.41,6.75-.55-1.64-3.06-12.27-3.06-15.95s7.36-17.39,5.93-20.46-5.12-12.47-6.75-9.61-2.25,32.52-2,36.41,9.62,21.68,10.23,19S242.23,351.11,240.89,350.49Z"/><path class="cls-26" d="M247.76,286.88c-1.12-4-2.41-16.11-4.86-13.5s-4.91,17.18-5.06,20.4,0,14.73,2,16,4.3-9.05,4.3-11.05S248.88,290.87,247.76,286.88Z"/><path class="cls-27" d="M154.07,265.12c-5.52,3.41-13.19,45.08-19.33,53.36S117,329.66,116.85,329.7c3.59.7,8.49-.7,12.68-1.4A11.68,11.68,0,0,1,140.72,333h0c-2.9-5.27,35.75-11.09,31.76-12.93s-14.42-8.29-14.11-16.27S159.6,261.72,154.07,265.12Z"/><path class="cls-28" d="M297.91,307.11h0L298,306Z"/><path class="cls-29" d="M309.94,251.48c.61-4.41-4.29-7.56-7.06-10.63s-8-21.78-7.67-13.19,2.77,78,2.77,78.14c.5-9.92.91-24.13,2.14-26.59.89-1.78,4.37-5.72,8.21-9.87C301.81,272.36,309.33,255.89,309.94,251.48Z"/><path class="cls-30" d="M170.64,387.83c3.68,2.45,16,15.34,17.18,18.1s7.67,13.5,10.44,13.81a1.81,1.81,0,0,0,1.05-.24c-3.64,1.42-7.4-33.41-8.62-33.21s-4.09,6.75-5.94,5.32-1-15.14-4.5-17.18S166,363,166,363C167.57,363.89,167,385.37,170.64,387.83Z"/></g><path class="cls-31" d="M418.6,114.33l-.41.06c-6.63,1.12-47.76,1.8-58.9,0s-39.27-4.18-52.53-3.92-47.23,6.1-63.68,5.31-59.16-.94-67.92-1.4-96-1.25-117.79-1.25c-10.24,0-31.64.27-51.44.57a4.8,4.8,0,0,1-2.18,1.12c-1.25.3-2.5.63-3.75,1,19.84-.93,43.78-1.69,61.21-1.1,35.42,1.19,103.08,2.18,115.81,1.49s72,5.07,103.47,0,53.33-4.69,65.27-1.7c11.77,2.95,51.39,5.7,77.67,1.39A30.24,30.24,0,0,1,418.6,114.33Z"/><path class="cls-32" d="M283.14,58.76a.85.85,0,0,0-.53.18c-.09.07-.17.16-.15.26s.57.22.86.22.72-.22,1.11-.12.73.16.82.05a2.86,2.86,0,0,0-1.74-.59Z"/><path class="cls-33" d="M281.47,58.2s.75-.67.93-.26.14,1,.86,1,.76-1.36.86-1.62,2.69-4.23,3.14-8.38-1.59-7.55-.73-9.29S286,37,284.27,37.41a2.12,2.12,0,0,0-1.13,3.23C283.74,41.45,281.22,45.2,281.47,58.2Z"/><path class="cls-32" d="M277.78,59.08a3.15,3.15,0,0,0,2-3c-.14-2.24-1.85-9.67,0-13.16S282,40,282.59,38.72s1.06-2,2.66-2.12,1.63,1,2.42,1.23,1.77.26,2.26,1.24c0,0-2.64-.86-3.4.6,0,0-.6-.27-1-.5s.13-.77.1-1.17-1.52-.78-2.19.36,1.76,1.31,2.22,2.28-.48,2.79-.41,4,1.17,2.55.67,5.48c-.39,2.33-1.34,2.7-1.62,2.55s.19-1.84-.21-2.62.19,1.12-1,2.55a5.36,5.36,0,0,0-.92,3.9,2,2,0,0,1-1.22,2.05A8.53,8.53,0,0,1,277.78,59.08Z"/><path class="cls-33" d="M287.51,38.22a.18.18,0,0,0-.1.31.35.35,0,0,0,.31.09,2.57,2.57,0,0,1,1.37.12C289.46,38.94,288.48,38.1,287.51,38.22Z"/></svg>